<svg xmlns="http://www.w3.org/2000/svg" width="280.65848pt" height="150pt" viewBox="0 0 280.65847 149.99999"><defs><clipPath id="aE"><path d="M531.726 90.57h6.042v-5.636h-6.042z"/></clipPath><clipPath id="a"><path d="M69.61 328.041h477.038V155.543H69.609Z"/></clipPath><clipPath id="b"><path d="M69.609 328.04H546.65V155.543H69.609Z"/></clipPath><clipPath id="c"><path d="M69.61 178.957H401.06v-39.204H69.609Z"/></clipPath><clipPath id="d"><path d="M-15914.4 16633.698h32142.6v-32003h-32142.6z"/></clipPath><clipPath id="e"><path d="M8.504 8.505h597.741v841.889H8.504Z"/></clipPath><clipPath id="f"><path d="M86.056 561.049h81.437v-82.15H86.056Z"/></clipPath><clipPath id="g"><path d="M86.056 646.93h81.437v-82.15H86.056Z"/></clipPath><clipPath id="i"><path d="M174.863 561.049h81.438v-82.15h-81.438z"/></clipPath><clipPath id="j"><path d="M174.863 646.93h81.438v-82.15h-81.438z"/></clipPath><clipPath id="k"><path d="M174.863 732.873h81.438v-82.15h-81.438z"/></clipPath><clipPath id="l"><path d="M263.67 595.798h81.438V478.899H263.67Z"/></clipPath><clipPath id="m"><path d="M352.478 595.798h81.437V478.899h-81.437z"/></clipPath><clipPath id="n"><path d="M352.478 681.051h81.437v-82.15h-81.437z"/></clipPath><clipPath id="o"><path d="M441.285 720.577h81.44v-69.854h-81.44z"/></clipPath><clipPath id="p"><path d="M441.285 789.775h81.44v-65.221h-81.44z"/></clipPath><clipPath id="q"><path d="M441.285 561.049h81.44v-82.15h-81.44z"/></clipPath><clipPath id="r"><path d="M69.61 388.238H406.05v-39.204H69.609Z"/></clipPath><clipPath id="s"><path d="M-15914.4 16842.898h32142.6v-32212.2h-32142.6Z"/></clipPath><clipPath id="t"><path d="M8.504 8.505h597.741v841.889H8.504Z"/></clipPath><clipPath id="u"><path d="M96.901 460.966h54.067v-54.067H96.902Z"/></clipPath><clipPath id="v"><path d="M96.902 460.966h54.066v-54.067H96.902Z"/></clipPath><clipPath id="w"><path d="M96.902 433.933c0 14.93 12.102 27.033 27.034 27.033 14.929 0 27.032-12.103 27.032-27.033 0-14.93-12.103-27.035-27.032-27.035-14.932 0-27.034 12.105-27.034 27.035"/></clipPath><clipPath id="A"><path d="M98.846 459.021h50.178v-50.177H98.846Z"/></clipPath><clipPath id="B"><path d="M98.846 459.021h50.179v-50.177H98.846Z"/></clipPath><clipPath id="C"><path d="M98.846 433.933c0 13.856 11.234 25.088 25.09 25.088s25.089-11.232 25.089-25.088c0-13.855-11.233-25.089-25.089-25.089-13.856 0-25.09 11.234-25.09 25.089"/></clipPath><clipPath id="G"><path d="M186.081 459.435h52.844V406.59h-52.844z"/></clipPath><clipPath id="H"><path d="M186.081 459.435h52.844V406.59h-52.844z"/></clipPath><clipPath id="I"><path d="M186.08 433.014c0 14.592 11.83 26.421 26.423 26.421 14.593 0 26.422-11.829 26.422-26.421 0-14.593-11.829-26.424-26.422-26.424s-26.423 11.831-26.423 26.424"/></clipPath><clipPath id="M"><path d="M187.981 457.534h49.044v-49.042h-49.044z"/></clipPath><clipPath id="N"><path d="M187.981 457.535h49.044v-49.043h-49.044z"/></clipPath><clipPath id="O"><path d="M187.981 433.014c0 13.542 10.98 24.521 24.523 24.521s24.521-10.979 24.521-24.521c0-13.543-10.978-24.522-24.521-24.522-13.543 0-24.523 10.979-24.523 24.522"/></clipPath><clipPath id="T"><path d="M274.513 459.435h52.845V406.59h-52.845z"/></clipPath><clipPath id="U"><path d="M274.514 459.435h52.844V406.59h-52.844z"/></clipPath><clipPath id="V"><path d="M274.513 433.014c0 14.592 11.83 26.421 26.424 26.421 14.592 0 26.421-11.829 26.421-26.421 0-14.593-11.829-26.424-26.421-26.424-14.594 0-26.424 11.831-26.424 26.424"/></clipPath><clipPath id="Z"><path d="M276.414 457.534h49.044v-49.042h-49.044z"/></clipPath><clipPath id="aa"><path d="M276.415 457.535h49.043v-49.043h-49.043z"/></clipPath><clipPath id="ab"><path d="M276.414 433.014c0 13.542 10.98 24.521 24.524 24.521 13.542 0 24.52-10.979 24.52-24.521 0-13.543-10.978-24.522-24.52-24.522-13.544 0-24.524 10.979-24.524 24.522"/></clipPath><clipPath id="af"><path d="M364.967 459.307h52.844v-52.845h-52.844z"/></clipPath><clipPath id="ag"><path d="M364.967 459.307h52.844v-52.845h-52.844z"/></clipPath><clipPath id="ah"><path d="M364.967 432.886c0 14.592 11.83 26.421 26.423 26.421 14.592 0 26.421-11.829 26.421-26.421 0-14.593-11.829-26.423-26.421-26.423-14.593 0-26.423 11.83-26.423 26.423"/></clipPath><clipPath id="al"><path d="M366.867 457.406h49.045v-49.042h-49.045z"/></clipPath><clipPath id="am"><path d="M366.867 457.407h49.044v-49.043h-49.044z"/></clipPath><clipPath id="an"><path d="M366.868 432.886c0 13.542 10.98 24.521 24.523 24.521 13.541 0 24.52-10.979 24.52-24.521 0-13.543-10.979-24.522-24.52-24.522-13.543 0-24.523 10.979-24.523 24.522"/></clipPath><clipPath id="ar"><path d="M452.97 459.435h52.845V406.59H452.97Z"/></clipPath><clipPath id="as"><path d="M452.97 459.435h52.844V406.59H452.97Z"/></clipPath><clipPath id="at"><path d="M452.97 433.014c0 14.592 11.83 26.421 26.423 26.421 14.593 0 26.421-11.829 26.421-26.421 0-14.593-11.828-26.424-26.421-26.424s-26.423 11.831-26.423 26.424"/></clipPath><clipPath id="ax"><path d="M454.871 457.534h49.044v-49.042h-49.044z"/></clipPath><clipPath id="ay"><path d="M454.871 457.535h49.044v-49.043h-49.044z"/></clipPath><clipPath id="az"><path d="M454.871 433.014c0 13.542 10.98 24.521 24.523 24.521 13.542 0 24.521-10.979 24.521-24.521 0-13.543-10.979-24.522-24.521-24.522-13.543 0-24.523 10.979-24.523 24.522"/></clipPath><clipPath id="aD"><path d="M441.285 646.93h81.44v-82.15h-81.44z"/></clipPath><mask id="z"><clipPath id="x"><path d="M-6399.52 1961.588h9283.06v-9283.1h-9283.06z"/></clipPath><g clip-path="url(#x)"><clipPath id="y"><path d="M8.504 850.394Z"/></clipPath></g>&quot;/&gt;</mask><mask id="F"><clipPath id="D"><path d="M-6399.52 1961.588h9283.06v-9283.1h-9283.06z"/></clipPath><g clip-path="url(#D)"><clipPath id="E"><path d="M8.504 850.394Z"/></clipPath></g>&quot;/&gt;</mask><mask id="L"><clipPath id="J"><path d="M-6163.5 1926.128h9073.22v-9073.2H-6163.5Z"/></clipPath><g clip-path="url(#J)"><clipPath id="K"><path d="M8.504 850.394Z"/></clipPath></g>&quot;/&gt;</mask><mask id="R"><clipPath id="P"><path d="M-6163.5 1926.128h9073.22v-9073.2H-6163.5Z"/></clipPath><g clip-path="url(#P)"><clipPath id="Q"><path d="M8.504 850.394Z"/></clipPath></g>&quot;/&gt;</mask><mask id="Y"><clipPath id="W"><path d="M-6075.04 1926.128h9073.19v-9073.2h-9073.19z"/></clipPath><g clip-path="url(#W)"><clipPath id="X"><path d="M8.504 850.394Z"/></clipPath></g>&quot;/&gt;</mask><mask id="ae"><clipPath id="ac"><path d="M-6075.04 1926.128h9073.19v-9073.2h-9073.19z"/></clipPath><g clip-path="url(#ac)"><clipPath id="ad"><path d="M8.504 850.394Z"/></clipPath></g>&quot;/&gt;</mask><mask id="ak"><clipPath id="ai"><path d="M-5984.61 1926.008h9073.22v-9073.23h-9073.22Z"/></clipPath><g clip-path="url(#ai)"><clipPath id="aj"><path d="M8.504 850.394Z"/></clipPath></g>&quot;/&gt;</mask><mask id="aq"><clipPath id="ao"><path d="M-5984.61 1926.008h9073.22v-9073.23h-9073.22Z"/></clipPath><g clip-path="url(#ao)"><clipPath id="ap"><path d="M8.504 850.394Z"/></clipPath></g>&quot;/&gt;</mask><mask id="aw"><clipPath id="au"><path d="M-5896.6 1926.128h9073.21v-9073.2H-5896.6Z"/></clipPath><g clip-path="url(#au)"><clipPath id="av"><path d="M8.504 850.394Z"/></clipPath></g>&quot;/&gt;</mask><mask id="aC"><clipPath id="aA"><path d="M-5896.6 1926.128h9073.21v-9073.2H-5896.6Z"/></clipPath><g clip-path="url(#aA)"><clipPath id="aB"><path d="M8.504 850.394Z"/></clipPath></g>&quot;/&gt;</mask><image id="h" width="457" height="461"/><image id="S" width="368" height="368"/></defs><g clip-path="url(#aE)" transform="translate(-15.534 -681.921)"><path fill="#808285" d="M559.583 88.125c0 .112-.048.245-.273.245h-.395c-.228 0-.275-.133-.275-.245 0-.153.102-.245.275-.245h.395c.17 0 .273.092.273.245m-.234-.518h-.476c-.33 0-.56.214-.56.518 0 .31.225.518.56.518h.476c.343 0 .557-.2.557-.518 0-.31-.224-.518-.557-.518M559.586 87.626l.323-.117v-1.502h-.323ZM561.322 86.889v-.515h.518v-.27h-1.353v.27h.515v.515a.216.216 0 0 1-.033.129c-.14.183-.377.472-.577.685l-.02.023.223.197.02-.022c.232-.25.385-.426.561-.641l.613.62.202-.2-.644-.673c-.025-.027-.025-.075-.025-.118M562.385 86.007h-.322v2.592l.322-.127v-1.438h.364v-.27h-.364ZM563.385 87.882h1.244v.771h.323v-1.038h-1.567ZM564.027 86.869a.44.44 0 0 0 .113-.278h.489v.292h-.614l.012-.014m.601-.863v.312h-.477c.002-.094.002-.18.002-.222v-.031h-1.138v.267h.815c0 .115-.004.216-.01.273a.158.158 0 0 1-.032.07c-.095.13-.498.46-.798.653l-.036.024.246.189.018-.012c.29-.19.623-.458.782-.63v.257h.629v.414l.323-.138v-1.426z"/><path fill="#231f20" d="M544.829 88.419h2.272v-.393h-2.272ZM546.229 87.258h-.527v-.741h.527zm.482-.74h.238v-.387h-1.967v.387h.237v.74h-.246v.387h1.985v-.387h-.247zM548.123 87.753h-.503v.603c0 .06.165.22.227.22h1.737v-.393h-1.461ZM549.031 87.397v.467h.494v-1.832h-.494v1.058l-.012.007c-.167.088-.388.088-.583.088h-.499v-.183h.84v-.91h-1.348v.37h.84v.182h-.84v.91h.937c.321 0 .526-.041.627-.126zM551.053 88.294c-.317 0-.513-.031-.513-.182 0-.154.205-.185.513-.185.31 0 .516.031.516.185 0 .151-.197.182-.516.182m0-.734c-.7 0-1.013.17-1.013.552 0 .38.313.549 1.013.549.702 0 1.016-.169 1.016-.549 0-.382-.314-.552-1.016-.552M551.528 87.249v.223h.494v-1.44h-.494v.95l-.012.006c-.167.088-.388.088-.583.088h-.513v-.171h.783v-.321h-.783v-.168h.842v-.333h-1.336v1.323h.936c.322 0 .527-.041.628-.125zM541.39 86.622a.948.948 0 0 0-.097-.241.66.66 0 0 0-.149-.18.29.29 0 0 0-.187-.07h-1.867v.62h1.603c.018 0 .045.008.068.039a.128.128 0 0 1 .026.078.12.12 0 0 1-.019.054.232.232 0 0 1-.057.063l-.007.005h-.937l.002.607h.937l.007.007c.013.013.026.03.04.052a.114.114 0 0 1 .023.06.144.144 0 0 1-.019.075.073.073 0 0 1-.064.037h-1.607v.622h1.871a.294.294 0 0 0 .187-.07.623.623 0 0 0 .15-.177 1.012 1.012 0 0 0 .105-.713.391.391 0 0 0-.103-.182l-.012-.014.011-.015a.69.69 0 0 0 .127-.411c0-.076-.01-.16-.033-.246M543.957 86.372a.671.671 0 0 0-.154-.174.311.311 0 0 0-.197-.067h-1.849v.607h1.606c.055 0 .063.033.064.048.001.018.004.045.01.083v.883a.22.22 0 0 1-.006.055c-.005.016-.02.036-.067.036h-.95v-.856h-.657v1.463h1.848a.311.311 0 0 0 .197-.067.671.671 0 0 0 .155-.174.965.965 0 0 0 .136-.493v-.848a.984.984 0 0 0-.135-.496"/><path fill="#808285" d="M539.16 89.808h.1c0 .042.033.076.075.076a.075.075 0 0 0 .074-.076.074.074 0 0 0-.064-.074l-.014-.001v-.1l.014-.001a.074.074 0 0 0 .064-.074.075.075 0 0 0-.15 0h-.1a.176.176 0 1 1 .3.125.175.175 0 1 1-.299.125M540.092 89.683c0-.2-.25-.2-.25-.2v.4s.25 0 .25-.2m.1 0c0 .3-.35.3-.35.3h-.102v-.6h.101s.351 0 .351.3M541.056 89.558c0-.076-.101-.076-.101-.076h-.101v.152h.1s.102 0 .102-.076m.1 0c0 .177-.201.177-.201.177h-.101v.251h-.1v-.605h.2s.203 0 .203.177M541.452 89.633h.1s.1 0 .1-.076c0-.075-.1-.075-.1-.075h-.1Zm.082.1h-.082v.25h-.1v-.601h.2s.2 0 .2.175c0 .098-.06.14-.115.16l.123.267h-.111ZM541.954 89.381h.1v.602h-.1zM542.65 89.984l-.3-.429v.43h-.102v-.604h.102l.301.43v-.43h.1v.603ZM543.383 89.482h-.151v.502h-.1v-.502h-.151v-.1h.402ZM543.576 89.381h.101v.602h-.101zM544.272 89.984l-.3-.429v.43h-.1v-.604h.101l.301.43v-.43h.1v.603ZM545.102 89.633v.35h-.1v-.04a.301.301 0 1 1 .062-.473l-.07.07a.2.2 0 1 0-.143.342.198.198 0 0 0 .15-.066v-.083h-.175v-.1ZM546.317 89.984h-.101v-.37l-.173.37h-.095l-.184-.378v.378h-.1v-.604h.102l.229.47.219-.47h.103ZM547.124 89.683a.2.2 0 1 0-.402 0 .2.2 0 0 0 .402 0m.1 0a.301.301 0 1 1-.602 0 .301.301 0 0 1 .603 0M547.806 89.683c0-.2-.25-.2-.25-.2v.4s.25 0 .25-.2m.1 0c0 .3-.35.3-.35.3h-.1v-.6h.1s.35 0 .35.3M548.217 89.482v.151h.3v.1h-.3v.15h.3v.101h-.4v-.603h.4v.101ZM549.052 89.883v.101h-.324v-.603h.101v.502ZM549.277 89.381h.101v.602h-.101zM549.972 89.984l-.3-.429v.43h-.1v-.604h.101l.301.43v-.43h.1v.603ZM550.803 89.633v.35h-.101v-.04a.302.302 0 1 1-.15-.562c.083 0 .158.034.212.09l-.07.07a.2.2 0 1 0-.142.342c.06 0 .112-.025.15-.067v-.083h-.175v-.1ZM551.667 89.809l-.063-.156-.062.156Zm.04.1h-.204l-.031.076h-.108l.24-.603.24.603h-.107ZM552.416 89.984l-.3-.429v.43h-.101v-.604h.102l.3.43v-.43h.1v.603ZM553.098 89.683c0-.2-.25-.2-.25-.2v.4s.25 0 .25-.2m.1 0c0 .3-.35.3-.35.3h-.101v-.6h.102s.35 0 .35.3M554.111 89.683c0-.2-.251-.2-.251-.2v.4s.251 0 .251-.2m.1 0c0 .3-.351.3-.351.3h-.101v-.6h.101s.351 0 .351.3M554.521 89.482v.151h.302v.1h-.302v.15h.302v.101h-.403v-.603h.403v.101ZM555.033 89.809h.1c.002.05.044.075.089.075.046 0 .087-.027.087-.075 0-.051-.047-.074-.087-.076-.005 0-.047 0-.091-.02a.164.164 0 0 1-.098-.155c0-.107.09-.176.189-.176.104 0 .186.073.187.176h-.1c-.001-.05-.042-.075-.087-.075-.048 0-.088.026-.088.075 0 .05.043.075.088.075.004 0 .046 0 .089.02a.162.162 0 0 1 .098.156c0 .107-.09.176-.187.176-.105-.003-.188-.071-.19-.176M555.603 89.381h.101v.602h-.101ZM556.439 89.633v.35h-.1v-.04a.302.302 0 1 1-.151-.562c.083 0 .158.034.212.09l-.07.07a.2.2 0 1 0-.142.342c.06 0 .113-.025.151-.067v-.083h-.176v-.1ZM557.05 89.984l-.3-.429v.43h-.102v-.604h.102l.301.43v-.43h.1v.603ZM558.137 89.855l-.064-.064.07-.07.065.063a.201.201 0 1 0-.071.071m.137.137-.065-.064a.302.302 0 1 1 .07-.07l.065.063zM558.568 89.856a.305.305 0 0 1-.03-.123v-.352h.1v.352s0 .041.02.081c.026.046.068.07.13.07.064 0 .106-.024.13-.07.02-.04.02-.08.02-.08v-.353h.102v.352a.305.305 0 0 1-.03.123.233.233 0 0 1-.221.128c-.101 0-.18-.045-.221-.128M559.57 89.809l-.064-.156-.062.156Zm.04.1h-.205l-.03.076h-.109l.24-.603.241.603h-.108ZM560.301 89.883v.101h-.324v-.603h.101v.502ZM560.526 89.381h.101v.602h-.101zM560.957 89.482v.151h.301v.1h-.301v.251h-.101v-.603h.402v.101ZM561.468 89.381h.1v.602h-.1zM562.181 89.825l.071.07a.302.302 0 1 1-.213-.515c.084 0 .158.035.213.09l-.07.07a.201.201 0 0 0-.343.142.201.201 0 0 0 .343.142M562.765 89.809l-.063-.156-.062.156Zm.04.1h-.204l-.031.076h-.108l.24-.603.241.603h-.108ZM563.396 89.482h-.151v.502h-.1v-.502h-.151v-.1h.402ZM563.59 89.381h.1v.602h-.1zM564.421 89.683a.2.2 0 1 0-.402 0 .2.2 0 0 0 .402 0m.101 0a.301.301 0 1 1-.602 0 .301.301 0 0 1 .602 0M565.153 89.984l-.299-.429v.43h-.102v-.604h.102l.301.43v-.43h.1v.603Z"/></g><path fill="#e4312b" d="M97.573 23.443v61.81h20.117V13.607H91.32s5.129 2.442 6.253 9.836M260.563 71.641a42.163 42.163 0 0 0 6.393-22.37c0-23.345-18.883-42.278-42.166-42.278a41.99 41.99 0 0 0-22.671 6.615h-78.907s6.203 2.52 6.203 13.203v6.309h15.595c1.73 1.43 4.345 4.428 4.812 9.897v42.166h20.134V43.996c-.717-8.25-5.09-10.876-5.09-10.876h20.946c-2.064 4.951-3.193 10.442-3.193 16.15 0 23.35 18.888 42.283 42.171 42.283 3.371 0 6.676-.44 10.131-1.374V71.285c-3.35 1.575-6.67 2.337-10.198 2.337-13.38 0-24.212-10.866-24.212-24.28 0-13.413 10.832-24.278 24.212-24.278 13.375 0 24.218 10.865 24.218 24.279 0 6.247-2.359 11.95-6.242 16.256a102.255 102.255 0 0 1-15.984-8.651s17.441 34.66 53.943 34.672V74.723s-8.334-.133-20.095-3.082" style="stroke-width:5.5635"/><path fill="#d1d3d4" d="M66.1 14.15c-.133 7.678-6.498 13.781-14.23 13.67-7.7-.15-13.854-6.487-13.72-14.154C38.283 5.99 44.642-.137 52.38.002 60.098.13 66.246 6.467 66.1 14.15" style="stroke-width:5.5635"/><path fill="#ef8a34" d="M62.562 14.15c-.111 5.597-4.762 10.076-10.393 9.992-5.652-.105-10.142-4.734-10.047-10.337.094-5.619 4.762-10.086 10.404-9.992 5.635.106 10.12 4.73 10.036 10.337" style="stroke-width:5.5635"/><path fill="#d1d3d4" d="M84.845 46.42c.15-7.7-6.009-14.026-13.725-14.165-7.711-.15-14.092 5.98-14.226 13.658-.022 1.03.089 2.053.3 3.043.106 1.775.117 7.133-3.493 11.133-1.336 1.185-2.626.306-3.233-.3-2.153-2.376-4.006-5.854-3.638-10.588.217-.93.35-1.897.356-2.876.128-7.7-6.014-14.02-13.731-14.154-7.728-.139-14.092 5.998-14.215 13.658-.022.963.073 1.909.223 2.827.072 1.925-.04 11.61-8.662 14.76C4.714 64.823.13 70.209 0 76.7c-.122 7.678 6.02 14.015 13.743 14.16 7.716.11 14.075-5.987 14.209-13.665.016-.85-.05-1.652-.162-2.464v.01s-.834-6.247 3.16-11.087c.618-.584 1.987-1.62 3.494-.595 2.159 2.297 4.04 5.786 3.583 10.804-.211.951-.34 1.936-.34 2.937-.15 7.678 5.998 14.004 13.72 14.126 7.717.145 14.093-5.97 14.21-13.658a13.09 13.09 0 0 0-.25-2.988l.021.017s-.678-10.154 9.753-14.866l-.056-.022c5.575-1.752 9.659-6.893 9.759-12.99" style="stroke-width:5.5635"/><path fill="#1968a6" d="M71.272 36.063c-5.653-.1-10.298 4.395-10.382 9.992-.072 2.966 1.169 5.664 3.188 7.561l-8.707 14.031c-1.13-.456-2.325-.69-3.61-.729-1.213 0-2.376.167-3.478.54l-8.128-13.664c2.092-1.836 3.433-4.5 3.472-7.455.1-5.636-4.401-10.26-10.031-10.348-5.642-.111-10.287 4.378-10.387 9.986a10.03 10.03 0 0 0 3.204 7.55l-8.707 14.025a10.458 10.458 0 0 0-3.61-.717c-5.63-.09-10.282 4.373-10.393 9.997-.083 5.592 4.39 10.226 10.042 10.337 5.642.084 10.293-4.39 10.376-9.997a10.073 10.073 0 0 0-3.232-7.594l8.696-14.015c1.129.445 2.364.718 3.66.757a10.404 10.404 0 0 0 3.667-.634l8.083 13.641a10.086 10.086 0 0 0-3.627 7.555c-.1 5.642 4.395 10.276 10.042 10.365 5.647.106 10.281-4.378 10.393-9.98a10.146 10.146 0 0 0-3.233-7.606l8.68-14.02c1.129.44 2.38.723 3.66.74 5.653.1 10.293-4.378 10.398-9.959.084-5.624-4.406-10.253-10.036-10.359" style="stroke-width:5.5635"/><path fill="#808285" d="M184.454 103.41c-.361 0-.723.073-1.09.246a4.91 4.91 0 0 0-1.018.69v-.74h-1.258v6.681h1.258v-5.001c.289-.223.595-.418.906-.562.318-.162.624-.228.918-.228.279 0 .318.039.507.111a.826.826 0 0 1 .395.384c.11.15.15.373.183.623.045.284.073.556.073.879v3.794h1.24v-4.334c0-.823-.189-1.44-.54-1.897-.372-.423-.884-.645-1.574-.645" style="stroke-width:5.5635"/><path fill="none" stroke="#808285" stroke-width="0.578603" d="M184.454 103.41c-.361 0-.723.073-1.09.246a4.91 4.91 0 0 0-1.018.69v-.74h-1.258v6.681h1.258v-5.001c.289-.223.595-.418.906-.562.318-.162.624-.228.918-.228.279 0 .318.039.507.111a.826.826 0 0 1 .395.384c.11.15.15.373.183.623.045.284.073.556.073.879v3.794h1.24v-4.334c0-.823-.189-1.44-.54-1.897-.372-.423-.884-.645-1.574-.645"/><path fill="#808285" d="M276.093 103.41c-.368 0-.724.073-1.085.246-.356.172-.707.4-1.035.69v-.74h-1.235v6.681h1.235v-5.001c.311-.223.59-.418.912-.562.312-.162.629-.228.918-.228.284 0 .323.039.5.111a.804.804 0 0 1 .407.384c.1.15.15.373.184.623.033.284.055.556.055.879v3.794h1.257v-4.334c0-.823-.189-1.44-.545-1.897-.356-.423-.879-.645-1.569-.645" style="stroke-width:5.5635"/><path fill="none" stroke="#808285" stroke-width="0.578603" d="M276.093 103.41c-.368 0-.724.073-1.085.246-.356.172-.707.4-1.035.69v-.74h-1.235v6.681h1.235v-5.001c.311-.223.59-.418.912-.562.312-.162.629-.228.918-.228.284 0 .323.039.5.111a.804.804 0 0 1 .407.384c.1.15.15.373.184.623.033.284.055.556.055.879v3.794h1.257v-4.334c0-.823-.189-1.44-.545-1.897-.356-.423-.879-.645-1.569-.645"/><path fill="#808285" d="M164.664 101.375h-7.121v1.051h2.715v7.861h1.413v-7.86h2.993z" style="stroke-width:5.5635"/><path fill="none" stroke="#808285" stroke-width="0.578603" d="M164.664 101.375h-7.121v1.051h2.715v7.861h1.413v-7.86h2.993z"/><path fill="#808285" d="M178.324 103.41c-.362 0-.724.073-1.09.246-.34.172-.685.4-1.03.69v-3.36h-1.274v9.301h1.274v-5.001c.295-.223.618-.418.924-.562.322-.162.617-.228.912-.228.284 0 .362.039.534.111.184.078.306.211.412.384.1.15.15.373.189.623.039.284.039.556.039.879v3.794h1.218v-4.334c0-.823-.183-1.44-.545-1.897-.35-.423-.873-.645-1.563-.645" style="stroke-width:5.5635"/><path fill="none" stroke="#808285" stroke-width="0.578603" d="M178.324 103.41c-.362 0-.724.073-1.09.246-.34.172-.685.4-1.03.69v-3.36h-1.274v9.301h1.274v-5.001c.295-.223.618-.418.924-.562.322-.162.617-.228.912-.228.284 0 .362.039.534.111.184.078.306.211.412.384.1.15.15.373.189.623.039.284.039.556.039.879v3.794h1.218v-4.334c0-.823-.183-1.44-.545-1.897-.35-.423-.873-.645-1.563-.645"/><path fill="#808285" d="M172.303 103.445c-.917 0-1.69.317-2.242.94-.573.64-.867 1.491-.867 2.576 0 .579.089 1.102.239 1.547.139.44.361.812.634 1.085.261.283.6.5.98.645.377.15.795.211 1.256.211a3.14 3.14 0 0 0 1.013-.161 4.668 4.668 0 0 0 1.013-.412v-1.235h-.067c-.067.056-.178.15-.306.245a5.708 5.708 0 0 1-.44.262 2.69 2.69 0 0 1-.606.228 2.725 2.725 0 0 1-.657.083c-.6 0-.868-.211-1.235-.645-.328-.44-.495-1.052-.495-1.853 0-.829.178-1.458.523-1.875.356-.423.607-.65 1.207-.65.323 0 .674.077 1.019.227.35.123.684.328.99.59h.067v-1.257a7.81 7.81 0 0 0-.957-.39 3.712 3.712 0 0 0-1.069-.161" style="stroke-width:5.5635"/><path fill="none" stroke="#808285" stroke-width="0.578603" d="M172.303 103.445c-.917 0-1.69.317-2.242.94-.573.64-.867 1.491-.867 2.576 0 .579.089 1.102.239 1.547.139.44.361.812.634 1.085.261.283.6.5.98.645.377.15.795.211 1.256.211a3.14 3.14 0 0 0 1.013-.161 4.668 4.668 0 0 0 1.013-.412v-1.235h-.067c-.067.056-.178.15-.306.245a5.708 5.708 0 0 1-.44.262 2.69 2.69 0 0 1-.606.228 2.725 2.725 0 0 1-.657.083c-.6 0-.868-.211-1.235-.645-.328-.44-.495-1.052-.495-1.853 0-.829.178-1.458.523-1.875.356-.423.607-.65 1.207-.65.323 0 .674.077 1.019.227.35.123.684.328.99.59h.067v-1.257a7.81 7.81 0 0 0-.957-.39 3.712 3.712 0 0 0-1.069-.161"/><path fill="#808285" d="M166.249 103.41c-.924 0-1.653.312-2.237.969-.55.65-.834 1.519-.834 2.615 0 1.09.283 1.947.868 2.548.59.617 1.418.907 2.459.907.411 0 .812-.05 1.18-.162.377-.1.745-.233 1.106-.395v-1.235h-.066c-.19.178-.49.356-.918.529a3.396 3.396 0 0 1-1.302.272c-.329 0-.45-.06-.712-.144a1.705 1.705 0 0 1-.69-.418 2.023 2.023 0 0 1-.501-.75 3.256 3.256 0 0 1-.167-1.08h4.479v-.618c0-.956-.234-1.713-.69-2.23-.473-.54-1.135-.807-1.975-.807m-1.814 2.787a1.98 1.98 0 0 1 .579-1.318c.328-.356.612-.535 1.168-.535.568 0 .846.173 1.118.49.284.317.418.779.418 1.363z" style="stroke-width:5.5635"/><path fill="none" stroke="#808285" stroke-width="0.578603" d="M164.435 106.2c.033-.534.24-.973.579-1.324.328-.35.612-.528 1.168-.528.567 0 .846.172 1.118.484.284.317.417.784.417 1.369zm1.814-2.787c-.924 0-1.653.312-2.237.968-.55.651-.834 1.52-.834 2.615 0 1.096.283 1.947.868 2.548.59.612 1.418.907 2.459.907.411 0 .812-.056 1.18-.161a7.952 7.952 0 0 0 1.106-.395v-1.241h-.066c-.19.184-.49.367-.918.529a3.21 3.21 0 0 1-1.302.278c-.329 0-.45-.061-.712-.145a1.754 1.754 0 0 1-.69-.423 2.036 2.036 0 0 1-.495-.745 3.116 3.116 0 0 1-.173-1.08h4.479v-.612c0-.962-.24-1.719-.69-2.242-.473-.534-1.135-.8-1.975-.8"/><path fill="#808285" d="M103.539 103.41c-.362 0-.729.073-1.085.246-.373.172-.562.4-.885.69v-.74h-1.201v6.681h1.201v-5.001c.284-.223.445-.418.768-.562.323-.162.623-.228.913-.228.278 0 .35.039.545.111a.75.75 0 0 1 .39.384c.1.15.166.373.2.623a7.4 7.4 0 0 1 .033.879v3.794h1.23v-4.334c0-.823-.168-1.44-.535-1.897-.361-.423-.873-.645-1.574-.645" style="stroke-width:5.5635"/><path fill="none" stroke="#808285" stroke-width="0.578603" d="M103.539 103.41c-.362 0-.729.073-1.085.246-.373.172-.562.4-.885.69v-.74h-1.201v6.681h1.201v-5.001c.284-.223.445-.418.768-.562.323-.162.623-.228.913-.228.278 0 .35.039.545.111a.75.75 0 0 1 .39.384c.1.15.166.373.2.623a7.4 7.4 0 0 1 .033.879v3.794h1.23v-4.334c0-.823-.168-1.44-.535-1.897-.361-.423-.873-.645-1.574-.645"/><path fill="#808285" d="M112.278 103.413c-.89 0-1.607.3-2.13.945-.523.646-.79 1.508-.79 2.576 0 1.113.267 1.964.79 2.593.523.65 1.24.962 2.13.962.88 0 1.592-.311 2.12-.962.534-.629.79-1.48.79-2.593 0-1.068-.256-1.93-.79-2.576-.528-.645-1.24-.945-2.12-.945m1.224 5.457c-.3.423-.69.635-1.201.635-.529 0-.935-.212-1.224-.657-.295-.417-.434-1.062-.434-1.914 0-.834.139-1.496.434-1.902.29-.429.695-.629 1.224-.629.512 0 .918.2 1.213.629.294.406.445 1.068.445 1.902 0 .868-.15 1.497-.457 1.936" style="stroke-width:5.5635"/><path fill="none" stroke="#808285" stroke-width="0.578603" d="M113.504 108.867c-.3.428-.69.64-1.197.64-.534 0-.94-.212-1.23-.657-.294-.423-.433-1.068-.433-1.914 0-.834.139-1.502.434-1.908.29-.423.695-.623 1.23-.623.506 0 .912.2 1.201.623.3.406.45 1.074.45 1.908 0 .863-.15 1.491-.455 1.93m-1.224-5.457c-.896 0-1.608.306-2.131.952-.523.64-.79 1.496-.79 2.575 0 1.108.267 1.964.79 2.587.523.657 1.235.963 2.13.963.88 0 1.592-.306 2.12-.963.529-.623.79-1.48.79-2.587 0-1.079-.261-1.936-.79-2.575-.528-.646-1.24-.952-2.12-.952"/><path fill="#808285" d="M152.109 103.41c-.362 0-.74.073-1.09.246-.351.172-.696.4-1.03.69v-.74h-1.257v6.681h1.257v-5.001c.29-.223.59-.418.901-.562.328-.162.634-.228.918-.228.278 0 .362.039.545.111.167.078.3.211.4.384.101.15.168.373.185.623a5.5 5.5 0 0 1 .06.879v3.794h1.22v-4.334c0-.823-.19-1.44-.552-1.897-.356-.423-.868-.645-1.557-.645" style="stroke-width:5.5635"/><path fill="none" stroke="#808285" stroke-width="0.578603" d="M152.109 103.41c-.362 0-.74.073-1.09.246-.351.172-.696.4-1.03.69v-.74h-1.257v6.681h1.257v-5.001c.29-.223.59-.418.901-.562.328-.162.634-.228.918-.228.278 0 .362.039.545.111.167.078.3.211.4.384.101.15.168.373.185.623a5.5 5.5 0 0 1 .06.879v3.794h1.22v-4.334c0-.823-.19-1.44-.552-1.897-.356-.423-.868-.645-1.557-.645"/><path fill="#808285" d="M127.446 103.41c-.39 0-.768.09-1.14.268a5.02 5.02 0 0 0-1.146.834 1.955 1.955 0 0 0-.69-.817c-.284-.178-.657-.284-1.09-.284a2.3 2.3 0 0 0-1.058.245c-.322.172-.64.4-.979.69v-.74h-1.218v6.681h1.218v-5.001a5 5 0 0 1 .868-.562c.278-.162.584-.228.868-.228.3 0 .356.039.517.117a.872.872 0 0 1 .373.411c.089.128.134.356.167.618.017.272.028.55.028.851v3.794h1.252v-4.261c0-.128-.012-.245-.017-.368-.011-.128-.011-.233-.034-.328.3-.25.607-.445.896-.606a1.9 1.9 0 0 1 .901-.228c.312 0 .267.044.446.117a.997.997 0 0 1 .372.411c.084.145.134.356.145.634.028.256.039.535.039.835v3.794h1.33v-4.334c0-.8-.162-1.418-.507-1.88-.328-.44-.834-.662-1.54-.662" style="stroke-width:5.5635"/><path fill="none" stroke="#808285" stroke-width="0.578603" d="M127.446 103.41c-.39 0-.768.09-1.14.268a5.02 5.02 0 0 0-1.146.834 1.955 1.955 0 0 0-.69-.817c-.284-.178-.657-.284-1.09-.284a2.3 2.3 0 0 0-1.058.245c-.322.172-.64.4-.979.69v-.74h-1.218v6.681h1.218v-5.001a5 5 0 0 1 .868-.562c.278-.162.584-.228.868-.228.3 0 .356.039.517.117a.872.872 0 0 1 .373.411c.089.128.134.356.167.618.017.272.028.55.028.851v3.794h1.252v-4.261c0-.128-.012-.245-.017-.368-.011-.128-.011-.233-.034-.328.3-.25.607-.445.896-.606a1.9 1.9 0 0 1 .901-.228c.312 0 .267.044.446.117a.997.997 0 0 1 .372.411c.084.145.134.356.145.634.028.256.039.535.039.835v3.794h1.33v-4.334c0-.8-.162-1.418-.507-1.88-.328-.44-.834-.662-1.54-.662"/><path fill="#808285" d="M109.647 103.607h-1.775v-.223c0-.567.095-.957.306-1.157.206-.223.384-.323.851-.323.14 0 .306.017.49.056.206.028.356.061.473.106h.044v-1.035c-.16-.034-.328-.05-.517-.084-.2-.033-.406-.033-.64-.033-.717 0-1.252.222-1.619.634-.378.434-.567 1.03-.567 1.836v.223h-.718v.94h.718v5.736h1.218v-5.736h1.736z" style="stroke-width:5.5635"/><path fill="none" stroke="#808285" stroke-width="0.578603" d="M109.647 103.607h-1.775v-.223c0-.567.095-.957.306-1.157.206-.223.384-.323.851-.323.14 0 .306.017.49.056.206.028.356.061.473.106h.044v-1.035c-.16-.034-.328-.05-.517-.084-.2-.033-.406-.033-.64-.033-.717 0-1.252.222-1.619.634-.378.434-.567 1.03-.567 1.836v.223h-.718v.94h.718v5.736h1.218v-5.736h1.736z"/><path fill="#808285" d="M119.062 103.607c-.34 0-.673.066-.99.222a4.992 4.992 0 0 0-1.107.78v-1.002h-1.291v6.676h1.29v-4.73c.268-.272.551-.46.874-.606.306-.166.629-.239.951-.239.212 0 .379.017.529.04.139.016.295.05.473.094h.05v-1.169a1.843 1.843 0 0 0-.384-.038c-.072-.028-.206-.028-.395-.028" style="stroke-width:5.5635"/><path fill="none" stroke="#808285" stroke-width="0.578603" d="M119.062 103.607c-.34 0-.673.066-.99.222a4.992 4.992 0 0 0-1.107.78v-1.002h-1.291v6.676h1.29v-4.73c.268-.272.551-.46.874-.606.306-.166.629-.239.951-.239.212 0 .379.017.529.04.139.016.295.05.473.094h.05v-1.169a1.843 1.843 0 0 0-.384-.038c-.072-.028-.206-.028-.395-.028"/><path fill="#808285" d="M134.917 103.968c-.234-.189-.718-.334-1.035-.395a4.562 4.562 0 0 0-1.168-.133c-.373 0-.757.033-1.152.111-.406.083-.69.134-.901.2v1.152h.044c.367-.15.724-.256 1.074-.34.334-.072.645-.105.93-.105.227 0 .45 0 .645.044.233.022.4.078.556.173a.983.983 0 0 1 .373.395c.078.161.122.373.122.634v.173c-.618.038-1.185.077-1.736.144-.534.072-.996.184-1.374.367-.39.178-.69.423-.885.746-.211.311-.317.706-.317 1.218 0 .623.2 1.135.596 1.53.4.406.873.607 1.452.607.311 0 .573-.034.795-.095.24-.056.456-.14.612-.217a4.15 4.15 0 0 0 .473-.3c.156-.123.284-.223.384-.295v.706h1.24v-4.534c0-.428-.066-.795-.188-1.08-.123-.294-.3-.539-.54-.706m-.512 4.685a4.54 4.54 0 0 1-.818.562c-.306.155-.612.239-.985.239-.428 0-.74-.106-.945-.295-.217-.184-.317-.49-.317-.88 0-.338.089-.6.289-.795.161-.183.4-.339.69-.434a5.52 5.52 0 0 1 .984-.172c.423-.033.79-.078 1.102-.083z" style="stroke-width:5.5635"/><path fill="none" stroke="#808285" stroke-width="0.578603" d="M134.406 108.654a4.245 4.245 0 0 1-.818.556c-.306.162-.612.24-.985.24-.423 0-.74-.1-.946-.29-.217-.183-.317-.49-.317-.879 0-.34.09-.6.29-.795.16-.184.4-.34.69-.434a5.52 5.52 0 0 1 .984-.173c.423-.033.79-.078 1.102-.083zm.511-4.685c-.233-.189-.717-.333-1.046-.4a4.715 4.715 0 0 0-1.157-.128c-.372 0-.756.033-1.151.111-.406.084-.69.128-.902.2v1.146h.045c.367-.144.723-.25 1.074-.333.328-.073.64-.106.929-.106.222 0 .445 0 .645.044.234.023.4.078.55.173a.927.927 0 0 1 .38.395c.077.161.122.367.122.634v.173c-.624.039-1.191.078-1.736.144-.54.073-.996.184-1.38.367-.384.173-.684.418-.879.746-.211.312-.317.707-.317 1.218 0 .624.2 1.13.59 1.53.406.406.879.601 1.452.601.317 0 .578-.028.795-.089.24-.055.456-.139.618-.217.144-.089.311-.178.467-.306.161-.122.284-.217.39-.29v.708h1.24v-4.535c0-.428-.072-.795-.194-1.08-.123-.294-.295-.539-.535-.706"/><path fill="#808285" d="M145.227 103.413c-.879 0-1.608.3-2.136.945-.518.646-.757 1.508-.757 2.576 0 1.113.24 1.964.757 2.593.528.65 1.257.962 2.136.962.89 0 1.597-.311 2.13-.962.53-.629.802-1.48.802-2.593 0-1.068-.273-1.93-.801-2.576-.534-.645-1.24-.945-2.13-.945m1.223 5.457c-.284.423-.679.635-1.196.635-.529 0-.935-.212-1.224-.657-.29-.417-.434-1.062-.434-1.914 0-.834.145-1.496.434-1.902.29-.429.69-.629 1.224-.629.517 0 .912.2 1.207.629.306.406.456 1.068.456 1.902 0 .868-.155 1.497-.467 1.936" style="stroke-width:5.5635"/><path fill="none" stroke="#808285" stroke-width="0.578603" d="M146.452 108.867c-.278.428-.679.64-1.196.64-.528 0-.935-.212-1.224-.657-.295-.423-.434-1.068-.434-1.914 0-.834.14-1.502.434-1.908.29-.423.69-.623 1.224-.623.517 0 .918.2 1.207.623.306.406.457 1.074.457 1.908 0 .863-.156 1.491-.468 1.93m-1.224-5.457c-.884 0-1.602.306-2.136.952-.512.64-.762 1.496-.762 2.575 0 1.108.25 1.964.762 2.587.534.657 1.252.963 2.136.963.896 0 1.591-.306 2.131-.963.529-.623.796-1.48.796-2.587 0-1.079-.267-1.936-.796-2.575-.54-.646-1.235-.952-2.13-.952"/><path fill="#808285" d="M140.405 102.856h1.441v-1.53h-1.44z" style="stroke-width:5.5635"/><path fill="none" stroke="#808285" stroke-width="0.578603" d="M140.406 102.853h1.44v-1.53h-1.44z"/><path fill="#808285" d="M138.028 101.68h-1.246v1.926h-.718v.94h.718v3.566c0 .818.178 1.408.506 1.764.317.367.812.562 1.463.562.195 0 .39-.023.629-.05.24-.045.45-.1.662-.145v-1.024h-.061c-.084.056-.223.095-.4.156-.201.033-.38.078-.563.078-.289 0-.322-.056-.473-.128-.144-.05-.261-.178-.339-.345a1.321 1.321 0 0 1-.161-.556c-.017-.195-.017-.468-.017-.813v-3.065h2.014v-.94h-2.014z" style="stroke-width:5.5635"/><path fill="none" stroke="#808285" stroke-width="0.578603" d="M138.028 101.68h-1.246v1.926h-.718v.94h.718v3.566c0 .818.178 1.408.506 1.764.317.367.812.562 1.463.562.195 0 .39-.023.629-.05.24-.045.45-.1.662-.145v-1.024h-.061c-.084.056-.223.095-.4.156-.201.033-.38.078-.563.078-.289 0-.322-.056-.473-.128-.144-.05-.261-.178-.339-.345a1.321 1.321 0 0 1-.161-.556c-.017-.195-.017-.468-.017-.813v-3.065h2.014v-.94h-2.014z"/><path fill="#808285" d="M140.472 110.283h1.319V103.6h-1.319z" style="stroke-width:5.5635"/><path fill="none" stroke="#808285" stroke-width="0.578603" d="M140.47 110.286h1.318v-6.677h-1.319z"/><path fill="#808285" d="M261.77 101.68h-1.068v1.926h-.73v.94h.73v3.566c0 .818.172 1.408.512 1.764.328.367.823.562 1.457.562.195 0 .4-.023.646-.05.216-.045.445-.1.645-.145v-1.024h-.056c-.078.056-.222.095-.406.156-.183.033-.373.078-.556.078-.295 0-.506-.056-.651-.128-.156-.05-.256-.178-.345-.345a1.513 1.513 0 0 1-.167-.556c0-.195-.012-.468-.012-.813v-3.065h2.192v-.94h-2.192z" style="stroke-width:5.5635"/><path fill="none" stroke="#808285" stroke-width="0.578603" d="M261.77 101.68h-1.068v1.926h-.73v.94h.73v3.566c0 .818.172 1.408.512 1.764.328.367.823.562 1.457.562.195 0 .4-.023.646-.05.216-.045.445-.1.645-.145v-1.024h-.056c-.078.056-.222.095-.406.156-.183.033-.373.078-.556.078-.295 0-.506-.056-.651-.128-.156-.05-.256-.178-.345-.345a1.513 1.513 0 0 1-.167-.556c0-.195-.012-.468-.012-.813v-3.065h2.192v-.94h-2.192z"/><path fill="#808285" d="M252.076 103.445c-.94 0-1.664.317-2.248.94-.568.64-.84 1.491-.84 2.576 0 .579.072 1.102.2 1.547.161.44.384.812.656 1.085.284.283.59.5.985.645.379.15.796.211 1.246.211.362 0 .696-.055 1.019-.161.322-.083.65-.223 1.001-.412v-1.235h-.056c-.083.056-.183.15-.328.245a3.892 3.892 0 0 1-.423.262 2.7 2.7 0 0 1-1.263.311c-.617 0-.829-.211-1.185-.645-.339-.44-.5-1.052-.5-1.853 0-.829.172-1.458.534-1.875.345-.423.55-.65 1.151-.65.323 0 .668.077.996.227.367.123.69.328 1.018.59h.056v-1.257a5.635 5.635 0 0 0-.951-.39 3.655 3.655 0 0 0-1.069-.161" style="stroke-width:5.5635"/><path fill="none" stroke="#808285" stroke-width="0.578603" d="M252.076 103.445c-.94 0-1.664.317-2.248.94-.568.64-.84 1.491-.84 2.576 0 .579.072 1.102.2 1.547.161.44.384.812.656 1.085.284.283.59.5.985.645.379.15.796.211 1.246.211.362 0 .696-.055 1.019-.161.322-.083.65-.223 1.001-.412v-1.235h-.056c-.083.056-.183.15-.328.245a3.892 3.892 0 0 1-.423.262 2.7 2.7 0 0 1-1.263.311c-.617 0-.829-.211-1.185-.645-.339-.44-.5-1.052-.5-1.853 0-.829.172-1.458.534-1.875.345-.423.55-.65 1.151-.65.323 0 .668.077.996.227.367.123.69.328 1.018.59h.056v-1.257a5.635 5.635 0 0 0-.951-.39 3.655 3.655 0 0 0-1.069-.161"/><path fill="#808285" d="M246.746 101.03c-.161-.038-.345-.05-.534-.082-.189-.028-.378-.028-.629-.028-.717 0-1.251.217-1.624.628-.373.434-.556 1.03-.556 1.836v.223h-.724v.94h.724v5.742h1.057v-5.742h1.897v-.94h-1.914v-.223c0-.567.1-.957.306-1.162.2-.217.528-.323.974-.323.139 0 .322.022.511.055.106.028.423.067.512.095z" style="stroke-width:5.5635"/><path fill="none" stroke="#808285" stroke-width="0.578603" d="M246.746 101.03c-.161-.038-.345-.05-.534-.082-.189-.028-.378-.028-.629-.028-.717 0-1.251.217-1.624.628-.373.434-.556 1.03-.556 1.836v.223h-.724v.94h.724v5.742h1.057v-5.742h1.897v-.94h-1.914v-.223c0-.567.1-.957.306-1.162.2-.217.528-.323.974-.323.139 0 .322.022.511.055.106.028.423.067.512.095z"/><path fill="#808285" d="M240.743 102.733h1.43v-1.413h-1.43z" style="stroke-width:5.5635"/><path fill="none" stroke="#808285" stroke-width="0.578603" d="M240.745 102.734h1.419v-1.407h-1.42z"/><path fill="#808285" d="M269.173 103.413c-.907 0-1.613.3-2.142.945-.517.646-.779 1.508-.779 2.576 0 1.113.262 1.964.78 2.593.528.65 1.234.962 2.141.962.874 0 1.586-.311 2.114-.962.529-.629.79-1.48.79-2.593 0-1.068-.261-1.93-.79-2.576-.528-.645-1.24-.945-2.114-.945m1.33 5.457c-.323.423-.773.635-1.33.635-.578 0-1.029-.212-1.368-.657-.312-.417-.457-1.062-.457-1.914 0-.834.145-1.496.457-1.902.339-.429.778-.629 1.368-.629.568 0 1.007.2 1.33.629.323.406.473 1.068.473 1.902 0 .868-.15 1.497-.473 1.936" style="stroke-width:5.5635"/><path fill="none" stroke="#808285" stroke-width="0.578603" d="M270.504 108.867c-.323.428-.773.64-1.33.64-.578 0-1.034-.212-1.368-.657-.312-.423-.456-1.068-.456-1.914 0-.834.144-1.502.456-1.908.334-.423.773-.623 1.368-.623.568 0 1.007.2 1.33.623.323.406.473 1.074.473 1.908 0 .863-.15 1.491-.473 1.93m-1.33-5.457c-.9 0-1.613.306-2.142.952-.511.64-.779 1.496-.779 2.575 0 1.108.268 1.964.78 2.587.528.657 1.24.963 2.141.963.88 0 1.58-.306 2.114-.963.535-.623.79-1.48.79-2.587 0-1.079-.255-1.936-.79-2.575-.534-.646-1.235-.952-2.114-.952"/><path fill="#808285" d="M190.204 103.413c-.885 0-1.597.3-2.13.945-.507.646-.785 1.508-.785 2.576 0 1.113.278 1.964.784 2.593.534.65 1.246.962 2.131.962.885 0 1.602-.311 2.136-.962.523-.629.785-1.48.785-2.593 0-1.068-.262-1.93-.785-2.576-.534-.645-1.251-.945-2.136-.945m1.24 5.457c-.294.423-.711.635-1.24.635-.512 0-.93-.212-1.23-.657-.294-.417-.433-1.062-.433-1.914 0-.834.139-1.496.433-1.902.3-.429.701-.629 1.23-.629.55 0 .946.2 1.24.629.29.406.44 1.068.44 1.902 0 .868-.15 1.497-.44 1.936" style="stroke-width:5.5635"/><path fill="none" stroke="#808285" stroke-width="0.578603" d="M191.443 108.867c-.295.428-.712.64-1.24.64-.507 0-.93-.212-1.23-.657-.29-.423-.434-1.068-.434-1.914 0-.834.144-1.502.434-1.908.3-.423.706-.623 1.23-.623.55 0 .945.2 1.24.623.29.406.445 1.074.445 1.908 0 .863-.156 1.491-.445 1.93m-1.24-5.457c-.885 0-1.597.306-2.12.952-.518.64-.785 1.496-.785 2.575 0 1.108.267 1.964.785 2.587.523.657 1.235.963 2.12.963.884 0 1.602-.306 2.136-.963.528-.623.784-1.48.784-2.587 0-1.079-.256-1.936-.784-2.575-.534-.646-1.252-.952-2.137-.952"/><path fill="#808285" d="M198.686 103.413c-.89 0-1.591.3-2.125.945-.523.646-.79 1.508-.79 2.576 0 1.113.267 1.964.79 2.593.534.65 1.235.962 2.125.962.89 0 1.602-.311 2.125-.962.523-.629.796-1.48.796-2.593 0-1.068-.273-1.93-.796-2.576-.523-.645-1.235-.945-2.125-.945m1.263 5.457c-.3.423-.718.635-1.24.635-.54 0-.946-.212-1.241-.657-.3-.417-.457-1.062-.457-1.914 0-.834.156-1.496.446-1.902.3-.429.712-.629 1.251-.629.54 0 .94.2 1.247.629.294.406.434 1.068.434 1.902 0 .868-.14 1.497-.44 1.936" style="stroke-width:5.5635"/><path fill="none" stroke="#808285" stroke-width="0.578603" d="M199.95 108.867c-.3.428-.717.64-1.24.64-.54 0-.951-.212-1.24-.657-.301-.423-.462-1.068-.462-1.914 0-.834.16-1.502.45-1.908.3-.423.712-.623 1.252-.623s.94.2 1.24.623c.301.406.44 1.074.44 1.908 0 .863-.139 1.491-.44 1.93m-1.262-5.457c-.896 0-1.597.306-2.125.952-.523.64-.79 1.496-.79 2.575 0 1.108.267 1.964.79 2.587.528.657 1.229.963 2.125.963.89 0 1.596-.306 2.12-.963.528-.623.8-1.48.8-2.587 0-1.079-.272-1.936-.8-2.575-.524-.646-1.23-.952-2.12-.952"/><path fill="#808285" d="M206.563 103.888a3.442 3.442 0 0 0-.796-.361 3.057 3.057 0 0 0-.912-.117c-.35 0-.707.078-1.052.222-.345.184-.64.39-.895.69a3.11 3.11 0 0 0-.629 1.085c-.145.4-.223.901-.223 1.469 0 1.062.217 1.875.657 2.448.462.59 1.051.873 1.814.873.45 0 .829-.067 1.118-.2a4.6 4.6 0 0 0 .918-.612v.612c0 .267-.039.528-.095.75a1.609 1.609 0 0 1-.278.552c-.128.15-.317.283-.545.384-.245.089-.55.133-.901.133-.384 0-.774-.061-1.152-.161a7.447 7.447 0 0 1-.812-.273h-.073v1.163c.323.078.63.156.957.211a7.8 7.8 0 0 0 .98.067c1.012 0 1.908-.267 2.386-.79.495-.534.735-1.352.735-2.51v-5.913h-1.135zm0 4.568a3.66 3.66 0 0 1-.83.523c-.3.122-.606.189-.911.189-.562 0-.963-.19-1.208-.6-.222-.374-.356-.947-.356-1.703 0-.807.161-1.391.484-1.814.328-.428.785-.64 1.347-.64.222 0 .461.05.695.111.256.04.495.15.779.273z" style="stroke-width:5.5635"/><path fill="none" stroke="#808285" stroke-width="0.578603" d="M206.563 108.456a3.66 3.66 0 0 1-.83.523c-.3.122-.606.189-.911.189-.562 0-.963-.19-1.208-.6-.222-.374-.356-.947-.356-1.709 0-.801.161-1.385.484-1.808.328-.428.785-.64 1.347-.64.222 0 .461.05.695.111.256.045.495.145.779.273zm0-4.568a3.004 3.004 0 0 0-.796-.356c-.244-.083-.55-.122-.912-.122-.35 0-.707.078-1.052.228-.345.178-.64.384-.895.684a3.11 3.11 0 0 0-.629 1.085c-.145.4-.223.901-.223 1.469 0 1.057.217 1.88.657 2.448.462.59 1.051.873 1.814.873.45 0 .829-.067 1.118-.2a4.6 4.6 0 0 0 .918-.612v.612c0 .267-.039.523-.095.75a1.492 1.492 0 0 1-.278.546c-.128.161-.317.29-.545.39-.245.089-.55.133-.901.133-.384 0-.774-.061-1.152-.161a7.443 7.443 0 0 1-.812-.273h-.073v1.168c.323.073.63.15.957.206a7.8 7.8 0 0 0 .98.067c1.012 0 1.908-.261 2.386-.79.495-.534.735-1.352.735-2.504v-5.925h-1.135z"/><path fill="#808285" d="M193.804 110.283h1.251v-9.302h-1.251z" style="stroke-width:5.5635"/><path fill="none" stroke="#808285" stroke-width="0.578603" d="M193.801 110.286h1.252v-9.303h-1.252z"/><path fill="#808285" d="m211.228 108.561-1.947-4.957h-1.13l2.498 6.365-1.174 2.782h1.358l3.683-9.147h-1.335z" style="stroke-width:5.5635"/><path fill="none" stroke="#808285" stroke-width="0.578603" d="m211.228 108.561-1.947-4.957h-1.13l2.498 6.365-1.174 2.782h1.358l3.683-9.147h-1.335z"/><path fill="#808285" d="M230.348 108.602a3.94 3.94 0 0 1-.907.573c-.323.15-.629.222-.901.222-.312 0-.34-.022-.501-.106-.156-.089-.306-.2-.39-.395-.1-.15-.166-.372-.2-.612a7.68 7.68 0 0 1-.039-.867v-3.811h-1.285v4.34c0 .84.19 1.451.557 1.902.383.417.89.64 1.546.64.4 0 .757-.084 1.09-.245.34-.15.68-.384 1.03-.679v.723h1.285v-6.681h-1.285z" style="stroke-width:5.5635"/><path fill="none" stroke="#808285" stroke-width="0.578603" d="M230.348 108.602a3.94 3.94 0 0 1-.907.573c-.323.15-.629.222-.901.222-.312 0-.34-.022-.501-.106-.156-.089-.306-.2-.39-.395-.1-.15-.166-.372-.2-.612a7.68 7.68 0 0 1-.039-.867v-3.811h-1.285v4.34c0 .84.19 1.451.557 1.902.383.417.89.64 1.546.64.4 0 .757-.084 1.09-.245.34-.15.68-.384 1.03-.679v.723h1.285v-6.681h-1.285z"/><path fill="#808285" d="M237.037 103.968c-.244-.189-.75-.334-1.084-.395a4.397 4.397 0 0 0-1.152-.133c-.384 0-.773.033-1.163.111-.395.083-.706.134-.896.2v1.152h.062c.361-.15.712-.256 1.062-.34.34-.072.64-.105.918-.105.228 0 .45 0 .662.044.212.022.39.078.54.173a.947.947 0 0 1 .373.395c.078.161.11.373.11.634v.173a27.02 27.02 0 0 0-1.707.144c-.545.072-1.013.184-1.402.367-.367.178-.673.423-.88.746-.2.311-.305.706-.305 1.218 0 .623.19 1.135.6 1.53.39.406.874.607 1.458.607.279 0 .568-.034.785-.095.228-.056.428-.14.617-.217.156-.089.295-.178.468-.3a5.47 5.47 0 0 0 .367-.295v.706h1.296v-4.534c0-.428-.067-.795-.183-1.08-.14-.294-.306-.539-.546-.706m-.567 4.685a4.377 4.377 0 0 1-.796.562c-.283.155-.606.239-.957.239-.411 0-.734-.106-.912-.295-.206-.184-.317-.49-.317-.88 0-.338.089-.6.273-.795.166-.183.406-.339.69-.434.228-.072.556-.133.956-.172.418-.033.774-.078 1.063-.083z" style="stroke-width:5.5635"/><path fill="none" stroke="#808285" stroke-width="0.578603" d="M236.47 108.654a4.093 4.093 0 0 1-.796.556 1.91 1.91 0 0 1-.957.24c-.411 0-.734-.1-.912-.29-.206-.183-.317-.49-.317-.879 0-.34.089-.6.273-.795.166-.184.406-.34.69-.434.227-.073.556-.134.956-.173.418-.033.774-.078 1.063-.083zm.567-4.685c-.244-.189-.75-.333-1.084-.4a4.636 4.636 0 0 0-1.152-.128c-.384 0-.773.033-1.163.111-.395.084-.706.128-.896.2v1.146h.062a7.52 7.52 0 0 1 1.062-.333c.34-.073.64-.106.918-.106.228 0 .456 0 .662.044.212.023.39.078.54.173a.915.915 0 0 1 .373.395c.078.161.11.367.11.634v.173a27.02 27.02 0 0 0-1.707.144c-.545.073-1.013.184-1.396.367-.373.173-.68.418-.88.746-.205.312-.305.707-.305 1.218 0 .624.194 1.13.595 1.53.39.406.879.601 1.457.601.279 0 .568-.028.785-.089.228-.055.428-.139.617-.217a5.09 5.09 0 0 0 .468-.306c.161-.122.289-.217.367-.29v.708h1.296v-4.535c0-.428-.067-.795-.189-1.08-.133-.294-.3-.539-.54-.706"/><path fill="#808285" d="M259.16 103.968c-.223-.189-.745-.334-1.08-.395a4.295 4.295 0 0 0-1.145-.133c-.384 0-.785.033-1.163.111-.4.083-.69.134-.901.2v1.152h.066c.362-.15.701-.256 1.046-.34.356-.072.662-.105.93-.105.239 0 .461 0 .661.044.217.022.395.078.546.173a.958.958 0 0 1 .361.395c.095.161.134.373.134.634v.173c-.623.038-1.202.077-1.73.144-.54.072-1.007.184-1.391.367-.379.178-.674.423-.874.746-.217.311-.317.706-.317 1.218 0 .623.206 1.135.607 1.53.395.406.867.607 1.446.607.312 0 .579-.034.801-.095.223-.056.423-.14.612-.217.145-.089.295-.178.467-.3.15-.123.279-.223.379-.295v.706h1.274v-4.534c0-.428-.061-.795-.184-1.08-.116-.294-.3-.539-.545-.706m-.545 4.685a4.62 4.62 0 0 1-.801.562c-.29.155-.601.239-.963.239-.406 0-.723-.106-.929-.295-.2-.184-.311-.49-.311-.88 0-.338.1-.6.267-.795.183-.183.422-.339.684-.434.267-.072.567-.133.99-.172.412-.033.768-.078 1.063-.083z" style="stroke-width:5.5635"/><path fill="none" stroke="#808285" stroke-width="0.578603" d="M258.617 108.654a4.499 4.499 0 0 1-.801.556c-.29.162-.6.24-.963.24-.406 0-.723-.1-.929-.29-.2-.183-.311-.49-.311-.879 0-.34.1-.6.261-.795.19-.184.423-.34.69-.434a5.5 5.5 0 0 1 .99-.173c.407-.033.768-.078 1.063-.083zm.545-4.685c-.228-.189-.745-.333-1.079-.4a4.573 4.573 0 0 0-1.152-.128c-.378 0-.779.033-1.157.111-.4.084-.695.128-.901.2v1.146h.067c.356-.144.7-.25 1.045-.333.357-.073.657-.106.93-.106.233 0 .461 0 .662.044.217.023.395.078.54.173.15.089.277.222.366.395.095.161.134.367.134.634v.173c-.629.039-1.202.078-1.73.144-.54.073-1.013.184-1.391.367-.378.173-.679.418-.874.746-.216.312-.317.707-.317 1.218 0 .624.2 1.13.601 1.53.4.406.874.601 1.447.601.317 0 .578-.028.806-.089.223-.055.423-.139.612-.217.145-.089.295-.178.462-.306.156-.122.284-.217.384-.29v.708h1.268v-4.535c0-.428-.055-.795-.183-1.08a1.502 1.502 0 0 0-.54-.706"/><path fill="#808285" d="M238.6 110.283h1.291v-9.302h-1.29z" style="stroke-width:5.5635"/><path fill="none" stroke="#808285" stroke-width="0.578603" d="M238.602 110.286h1.291v-9.303h-1.29z"/><path fill="#808285" d="M240.826 110.283h1.285V103.6h-1.285z" style="stroke-width:5.5635"/><path fill="none" stroke="#808285" stroke-width="0.578603" d="M240.828 110.286h1.285v-6.677h-1.285z"/><path fill="#808285" d="M264.254 102.483h1.408v-1.163h-1.408z" style="stroke-width:5.5635"/><path fill="none" stroke="#808285" stroke-width="0.578603" d="M264.252 102.487h1.408v-1.163h-1.408z"/><path fill="#808285" d="M264.315 110.283h1.28V103.6h-1.28z" style="stroke-width:5.5635"/><path fill="none" stroke="#808285" stroke-width="0.578603" d="M264.319 110.286h1.28v-6.677h-1.28z"/><path fill="#808285" d="M246.751 102.733h1.413v-1.413h-1.413z" style="stroke-width:5.5635"/><path fill="none" stroke="#808285" stroke-width="0.578603" d="M246.751 102.734h1.413v-1.407h-1.413z"/><path fill="#808285" d="M246.818 110.283h1.28V103.6h-1.28z" style="stroke-width:5.5635"/><path fill="none" stroke="#808285" stroke-width="0.578603" d="M246.817 110.286h1.286v-6.677h-1.286z"/><path fill="#808285" d="M224.903 111.51c-.212.051-.395.073-.556.073-.484 0-.835-.122-1.024-.367-.19-.256-.284-.595-.29-1.035.696-.317 1.263-.834 1.692-1.591.417-.751.629-1.669.629-2.76 0-.717-.106-1.368-.273-1.963-.195-.579-.456-1.069-.807-1.458a3.32 3.32 0 0 0-1.218-.901 4.102 4.102 0 0 0-1.62-.329c-.594 0-1.129.123-1.613.329a3.29 3.29 0 0 0-1.235.901c-.356.406-.612.901-.812 1.469a6.883 6.883 0 0 0-.261 1.953c0 .756.089 1.413.289 1.98.172.584.434 1.063.784 1.474.329.373.751.668 1.23.902.49.2 1.018.3 1.619.3l.245-.022.267-.022c.039.712.244 1.252.64 1.624.389.39.923.574 1.59.574.218 0 .457-.023.668-.034.228-.033.456-.072.673-.128v-1.113h-.155c-.095.056-.234.095-.462.145m-3.427-2.053c-.774 0-1.38-.295-1.836-.923-.45-.623-.69-1.52-.69-2.704 0-1.152.223-2.048.69-2.676.445-.629 1.051-.93 1.836-.93.79 0 1.396.301 1.847.93.456.628.673 1.524.673 2.676 0 1.185-.217 2.08-.673 2.704-.462.628-1.08.923-1.847.923" style="stroke-width:5.5635"/><path fill="none" stroke="#808285" stroke-width="0.578603" d="M221.479 109.459c-.774 0-1.386-.295-1.842-.924-.45-.623-.684-1.518-.684-2.704 0-1.151.222-2.047.684-2.676.45-.628 1.052-.929 1.842-.929s1.39.3 1.847.93c.456.628.667 1.524.667 2.675 0 1.186-.211 2.081-.667 2.704-.468.629-1.08.924-1.847.924m3.427 2.053c-.206.05-.4.072-.551.072-.49 0-.846-.128-1.03-.367-.189-.256-.283-.595-.294-1.035.695-.317 1.268-.834 1.691-1.585.417-.752.64-1.675.64-2.766 0-.717-.111-1.368-.278-1.963-.195-.579-.456-1.069-.807-1.458a3.447 3.447 0 0 0-1.218-.907 4.139 4.139 0 0 0-1.62-.317c-.595 0-1.129.111-1.613.317-.49.211-.907.517-1.235.907-.356.406-.617.901-.807 1.469a6.876 6.876 0 0 0-.267 1.952c0 .757.095 1.414.284 1.976a3.91 3.91 0 0 0 .79 1.474c.328.378.746.673 1.23.907.49.2 1.018.3 1.619.3l.244-.017.267-.027c.04.706.245 1.246.635 1.624.395.39.923.573 1.59.573.235 0 .463-.022.674-.039.228-.028.456-.072.673-.122v-1.113h-.156c-.094.05-.239.09-.461.145"/><path fill="#808285" d="M98.078 110.283h1.352v-8.902h-1.352z" style="stroke-width:5.5635"/><path fill="none" stroke="#808285" stroke-width="0.578603" d="M98.08 110.286h1.352v-8.902H98.08z"/><path fill="#231f20" d="M188.656 136.637s1.546.456 1.546 1.93v.985h18.593v1.886h-20.14s1.547.434 1.547 1.903v5.853h23.985v-2.915h-18.6v-1.842h18.6v-7.8h-9.292v-2.108h11.445v-3.205H188.7v3.205h10.788v2.108zM147.351 119.83s1.213.301 1.525 1.826v3.65h-14.087v-5.475h-6.938s1.319.323 1.552 2.03v15.673h9.731v6.46h-11.266v3.499h27.934v-3.5h-11.271v-6.46h9.747v-17.702zm1.525 14.216h-14.082v-4.663h14.082zM189.671 129.812h6.932l6.098-5.847 4.957 5.847h6.587l-9.875-11.26h-6.96s2.665 1.451.317 3.482zM239.411 122.706v12.785l-8.44-11.616h6.165v-4.04h-19.389s1.519.368 1.591 2.432v1.608h5.219l-5.603 16.662h5.291l4.178-13.018 10.933 15.477h.055v4.468h5.408v-19.445h4.874v-3.499h-4.874v-4.679h-6.999s1.591.84 1.591 2.865M250.958 119.835s1.258.3 1.525 1.908v1.597h10.448l-11.021 12.29h1.802c.507 0 .935.333.935 1.368v1.797H273.1v8.662h5.397V119.84h-6.515c.361.15.929.685 1.118 1.948v2.81h-5.786l3.945-4.763zm7.005 15.45 6.581-7.517h8.557v1.725H264.3v3.177h8.801v2.615zM97.354 119.835s1.347.328 1.564 2.108v1.397h4.723l-4.718 8.612h5.347l2.87-5.736 5.164 5.486c-4.557.8-7.634 4.718-7.634 8.98 0 5.145 4.429 9.318 9.903 9.318 5.475 0 9.981-4.117 9.981-9.269 0-.133.011-.445.011-.445v-20.451h-6.976s1.413.35 1.58 2.247v2.198h-3.861v3.494h3.86v4.657c-.467-.229-9-9.091-9-9.091h5.207v-3.505zm17.164 26.031c-2.826 0-5.124-2.27-5.124-5.085 0-2.82 2.298-5.09 5.124-5.09a5.087 5.087 0 0 1 5.096 5.09 5.086 5.086 0 0 1-5.096 5.085M156.928 119.835s1.385.328 1.552 2.203v1.841h10.793l-8.262 16.78h5.836l9.547-20.824zM177.259 119.835s1.452.356 1.574 2.286v25.375h5.397v-27.661zM24.589 125.606v.901h7.7l-5.892 12.474h4.15l6.815-14.95H23.476s.99.24 1.113 1.575M42.942 124.035h-4.968s1.03.25 1.124 1.641v18.226h3.844V132.77h3.288v-2.526h-3.288zM21.361 123.995H2.14s.89.217 1.085 1.369v1.14h13.397l-1.113 3.694H1.104s.896.206 1.096 1.352v1.152h7.928v3.132H2.557s.69.334.69 1.18v1.335h14.398v5.53h3.85v-8.045H13.99v-3.132h8.3v-2.504h-2.67zM84.43 124.035s1.029.25 1.118 1.641v15.578h-9.892v-4.606h-4.968s1.018.25 1.112 1.635v5.486h17.598v-19.734zM58.232 143.209c-1.942 0-3.51-1.87-3.51-4.173 0-2.298 1.568-4.161 3.51-4.161 1.93 0 3.516 1.863 3.516 4.161 0 2.303-1.585 4.173-3.516 4.173m9.04-19.155H48.046s.89.217 1.096 1.363v1.151h13.392l-.952 5.658h-3.188v-3.343h-3.855v3.343h-7.466s.895.212 1.101 1.369v1.135h4.223c-1.096 1.18-1.753 2.687-1.753 4.334 0 3.727 3.372 6.743 7.539 6.743 4.161 0 7.533-3.016 7.533-6.743 0-1.647-.662-3.155-1.753-4.334h4.307v-2.504h-2.57z" style="stroke-width:5.5635"/><path fill="#231f20" d="M77.068 125.674c1.775 0 3.216 1.824 3.216 4.067 0 2.242-1.44 4.055-3.216 4.055-1.786 0-3.232-1.813-3.232-4.055 0-2.243 1.446-4.067 3.232-4.067m-.183 10.698c3.772 0 6.826-2.915 6.826-6.503 0-3.583-3.054-6.488-6.826-6.488-3.778 0-6.827 2.905-6.827 6.488 0 3.588 3.05 6.503 6.827 6.503" style="stroke-width:5.5635"/></svg>